<?xml version="1.0" encoding="UTF-8" standalone="no"?>
<!DOCTYPE svg PUBLIC "-//W3C//DTD SVG 1.1//EN" "http://www.w3.org/Graphics/SVG/1.1/DTD/svg11.dtd">
<svg width="100%" height="100%" viewBox="0 0 96 64" version="1.1" xmlns="http://www.w3.org/2000/svg" xmlns:xlink="http://www.w3.org/1999/xlink" xml:space="preserve" xmlns:serif="http://www.serif.com/" style="fill-rule:evenodd;clip-rule:evenodd;stroke-linejoin:round;stroke-miterlimit:2;">
    <g transform="matrix(0.401727,0,0,0.415782,0.469517,0.206858)">
        <path d="M235.31,16.564C235.31,8.475 228.513,1.908 220.141,1.908L16.49,1.908C8.118,1.908 1.321,8.475 1.321,16.564L1.321,136.367C1.321,144.457 8.118,151.024 16.49,151.024L220.141,151.024C228.513,151.024 235.31,144.457 235.31,136.367L235.31,16.564Z" style="fill:rgb(52,52,52);"/>
    </g>
    <g transform="matrix(0.516928,0,0,0.516928,48,32)">
        <g transform="matrix(1,0,0,1,-65.695,-43.45)">
            <g opacity="0">
                <rect x="0" y="0" width="131.39" height="86.9" style="fill:white;"/>
            </g>
            <g>
                <rect x="48.37" y="15.14" width="34.66" height="56.61" style="fill:rgb(249,249,249);"/>
                <path d="M120.5,65.76L120.5,64.6L121,64.6L121,64.36L119.81,64.36L119.81,64.6L120.28,64.6L120.28,65.76L120.5,65.76ZM122.81,65.76L122.81,64.36L122.45,64.36L122.03,65.36L121.61,64.36L121.25,64.36L121.25,65.76L121.51,65.76L121.51,64.7L121.9,65.61L122.17,65.61L122.56,64.7L122.56,65.76L122.81,65.76Z" style="fill:rgb(249,249,249);fill-rule:nonzero;"/>
                <path d="M123.94,43.45C123.94,63.199 107.689,79.449 87.94,79.449C79.872,79.449 72.033,76.737 65.69,71.75C74.369,64.929 79.445,54.483 79.445,43.445C79.445,32.407 74.369,21.961 65.69,15.14C72.033,10.153 79.872,7.441 87.94,7.441C107.689,7.441 123.94,23.691 123.94,43.44L123.94,43.45Z" style="fill:rgb(249,249,249);fill-rule:nonzero;"/>
            </g>
            <path d="M51.94,43.45C51.931,32.413 57.008,21.965 65.69,15.15C59.348,10.166 51.511,7.455 43.445,7.455C23.696,7.455 7.445,23.706 7.445,43.455C7.445,63.204 23.696,79.455 43.445,79.455C51.511,79.455 59.348,76.744 65.69,71.76C57.005,64.943 51.928,54.491 51.94,43.45Z" style="fill:rgb(222,222,222);fill-rule:nonzero;"/>
        </g>
    </g>
</svg>
