<?xml version="1.0" encoding="UTF-8" standalone="no"?><!DOCTYPE svg PUBLIC "-//W3C//DTD SVG 1.1//EN" "http://www.w3.org/Graphics/SVG/1.1/DTD/svg11.dtd"><svg width="100%" height="100%" viewBox="0 0 96 64" version="1.1" xmlns="http://www.w3.org/2000/svg" xmlns:xlink="http://www.w3.org/1999/xlink" xml:space="preserve" xmlns:serif="http://www.serif.com/" style="fill-rule:evenodd;clip-rule:evenodd;stroke-linecap:round;stroke-linejoin:round;stroke-miterlimit:1.5;"><path d="M95,7.094c0,-3.363 -2.731,-6.094 -6.094,-6.094l-81.812,0c-3.363,0 -6.094,2.731 -6.094,6.094l-0,49.812c-0,3.363 2.731,6.094 6.094,6.094l81.812,0c3.363,0 6.094,-2.731 6.094,-6.094l0,-49.812Z" style="fill:#fff;stroke:#b1b1b1;stroke-width:0.5px;"/><path d="M95,6.894c0,-3.253 -2.641,-5.894 -5.894,-5.894l-82.212,0c-3.253,0 -5.894,2.641 -5.894,5.894l0,50.212c0,3.253 2.641,5.894 5.894,5.894l82.212,0c3.253,0 5.894,-2.641 5.894,-5.894l0,-50.212Z" style="fill:#fff;stroke:#7e7e7e;stroke-width:0.5px;"/><g opacity="0"><rect x="14.04" y="9.539" width="67.919" height="44.921" style="fill:#fff;"/></g><rect x="39.044" y="17.366" width="17.917" height="29.263" style="fill:#ff5f00;"/><path d="M40.89,32c-0.005,-5.706 2.619,-11.106 7.107,-14.629c-3.278,-2.576 -7.329,-3.978 -11.498,-3.978c-10.209,0 -18.61,8.401 -18.61,18.61c0,10.208 8.401,18.609 18.61,18.609c4.169,-0 8.22,-1.401 11.498,-3.978c-4.489,-3.524 -7.113,-8.927 -7.107,-14.634Z" style="fill:#eb001b;fill-rule:nonzero;"/><path d="M76.33,43.533l0,-0.6l0.259,0l-0,-0.124l-0.615,-0l-0,0.124l0.242,0l0,0.6l0.114,-0Zm1.194,-0l0,-0.724l-0.186,-0l-0.217,0.517l-0.217,-0.517l-0.186,-0l-0,0.724l0.134,-0l0,-0.548l0.202,0.47l0.139,0l0.202,-0.47l0,0.548l0.129,-0Z" style="fill:#f79e1b;fill-rule:nonzero;"/><path d="M78.108,32c0,10.209 -8.4,18.609 -18.609,18.609c-4.171,-0 -8.223,-1.402 -11.502,-3.98c4.487,-3.526 7.111,-8.926 7.111,-14.632c-0,-5.705 -2.624,-11.106 -7.111,-14.631c3.279,-2.578 7.331,-3.98 11.502,-3.98c10.209,-0 18.609,8.4 18.609,18.609l0,0.005Z" style="fill:#f79e1b;fill-rule:nonzero;"/></svg>