<svg xmlns="http://www.w3.org/2000/svg" viewBox="0 0 450.53 281.82"><defs><style>.a{fill:#e21836;}.b{fill:#00447c;}.c{fill:#007b84;}.d{fill:#fefefe;}</style></defs><title>unionpay</title><path class="a" d="M88.23,0H200.68c15.7,0,25.46,12.79,21.8,28.54L170.13,253.32c-3.7,15.69-19.42,28.5-35.12,28.5H22.57c-15.68,0-25.46-12.81-21.8-28.5L53.14,28.54C56.81,12.79,72.51,0,88.23,0"/><path class="b" d="M191.32,0H320.64c15.69,0,8.62,12.79,4.92,28.54L273.22,253.32c-3.67,15.69-2.53,28.5-18.26,28.5H125.65c-15.73,0-25.46-12.81-21.77-28.5L156.23,28.54C159.94,12.79,175.62,0,191.32,0"/><path class="c" d="M315.51,0H428c15.72,0,25.48,12.79,21.79,28.54L397.41,253.32c-3.7,15.69-19.43,28.5-35.14,28.5H249.87c-15.73,0-25.48-12.81-21.8-28.5L280.42,28.54C284.09,12.79,299.78,0,315.51,0"/><path class="d" d="M117.6,72c-11.57.12-15,0-16.07-.25-.42,2-8.22,38-8.25,38-1.68,7.28-2.9,12.47-7,15.82a12.57,12.57,0,0,1-8.3,2.89c-5.13,0-8.12-2.55-8.62-7.38l-.09-1.65s1.56-9.76,1.56-9.81S79,76.86,80.43,72.53a3,3,0,0,0,.12-.5c-15.94.14-18.76,0-19-.25-.11.35-.5,2.38-.5,2.38l-8.36,37L52,114.27l-1.39,10.26a15.07,15.07,0,0,0,1.79,7.62c3.81,6.66,14.67,7.66,20.82,7.66,7.92,0,15.35-1.68,20.37-4.76,8.72-5.15,11-13.2,13-20.35l1-3.67S116,77,117.45,72.53A1.35,1.35,0,0,1,117.6,72Zm28.7,27.49a22.25,22.25,0,0,0-9.09,2.13c-1.21.62-2.35,1.34-3.56,2l1.09-3.94-.6-.66c-7.08,1.43-8.66,1.63-15.2,2.55l-.55.36a192.72,192.72,0,0,1-4.25,23.41c-1.07,4.56-2.18,9.16-3.3,13.71l.3.58c6.7-.35,8.74-.35,14.56-.26l.47-.51c.74-3.79.84-4.68,2.48-12.36.77-3.64,2.38-11.63,3.17-14.48a10.74,10.74,0,0,1,4.26-1.34c3.26,0,2.87,2.85,2.74,4-.14,1.91-1.33,8.13-2.55,13.47l-.81,3.45c-.57,2.55-1.19,5-1.76,7.55l.25.5c6.6-.35,8.62-.35,14.26-.26l.66-.51c1-5.92,1.32-7.5,3.13-16.12l.91-4c1.77-7.76,2.65-11.69,1.32-14.89C152.81,100.38,149.42,99.52,146.3,99.52Zm32.07,8.11c-3.51.68-5.75,1.13-8,1.42s-4.35.67-7.75,1.14l-.27.25-.24.19c-.36,2.53-.6,4.71-1.07,7.28s-1,5.68-2,10a39.64,39.64,0,0,1-1.6,5.65,48.24,48.24,0,0,0-1.77,5.56l.21.3.17.28c3.17-.15,5.24-.26,7.37-.28s4.34,0,7.76,0l.29-.24.32-.27c.5-2.94.57-3.74.87-5.17s.82-3.67,2.08-9.37c.6-2.68,1.26-5.34,1.88-8.07s1.32-5.4,2-8.07l-.09-.33Zm.07-10.94c-3.19-1.88-8.79-1.28-12.55,1.32s-4.19,6.16-1,8.07,8.76,1.29,12.49-1.34S181.59,98.56,178.44,96.69Zm19.3,43.61c6.45,0,13.07-1.78,18-7.06,3.83-4.28,5.59-10.65,6.2-13.27,2-8.7.44-12.75-1.5-15.23-3-3.77-8.15-5-13.54-5-3.25,0-11,.32-17,5.88-4.33,4-6.34,9.47-7.55,14.69s-2.62,14.91,6.19,18.47A25.77,25.77,0,0,0,197.74,140.3Zm-.51-19.56c1.49-6.58,3.25-12.11,7.73-12.11,3.52,0,3.77,4.11,2.21,10.72-.28,1.46-1.56,6.91-3.3,9.24-1.21,1.71-2.64,2.75-4.23,2.75-.47,0-3.27,0-3.32-4.17A28.6,28.6,0,0,1,197.23,120.74Zm40.89,18.71.51-.51c.71-3.79.83-4.68,2.41-12.35.8-3.64,2.44-11.64,3.21-14.49a10.63,10.63,0,0,1,4.28-1.34c3.24,0,2.85,2.85,2.72,4a130.37,130.37,0,0,1-2.55,13.47l-.77,3.45c-.59,2.55-1.23,5-1.8,7.55l.25.5c6.63-.35,8.56-.35,14.24-.26l.68-.51c1-5.92,1.27-7.51,3.13-16.12l.89-4c1.77-7.75,2.67-11.68,1.36-14.88-1.46-3.58-4.87-4.45-7.95-4.45a22.18,22.18,0,0,0-9.09,2.13c-1.18.62-2.37,1.34-3.54,2l1-3.93-.55-.67c-7.08,1.44-8.69,1.63-15.23,2.55l-.5.36a199,199,0,0,1-4.25,23.41c-1.07,4.56-2.18,9.16-3.3,13.71l.3.58C230.31,139.36,232.31,139.36,238.12,139.45Zm48.7.26c.41-2,2.89-14.09,2.91-14.09s2.11-8.84,2.24-9.16a5.31,5.31,0,0,1,1.32-1.29h1c9.21,0,19.6,0,27.75-6a29.57,29.57,0,0,0,11-17.56,26.55,26.55,0,0,0,.76-6.12,12.83,12.83,0,0,0-2.21-7.8c-4.15-5.82-12.43-5.92-22-6l-4.71,0c-12.23.15-17.13.1-19.14-.14-.17.89-.49,2.47-.49,2.47s-4.38,20.3-4.38,20.33-10.49,43.16-11,45.2C280.6,139.51,285,139.51,286.82,139.71Zm8.11-36.06,4.64-20.18.15-1,.06-.79,1.86.19,9.83.85c3.79,1.46,5.36,5.24,4.27,10.18A14.81,14.81,0,0,1,308.06,103c-3.1,1.55-6.89,1.68-10.79,1.68h-2.53Zm29,17.46c-1.23,5.25-2.65,14.83,6.12,18.25a17.1,17.1,0,0,0,7.85,1.41,12.87,12.87,0,0,0,7.48-3.43c-.2.79-.41,1.59-.62,2.39l.4.52c6.3-.27,8.26-.27,15.09-.22l.62-.47c1-5.87,1.94-11.56,4.53-22.78,1.27-5.38,2.53-10.7,3.83-16l-.21-.59c-7,1.31-8.94,1.58-15.72,2.55l-.52.42q-.11.81-.21,1.59a9.66,9.66,0,0,0-4.94-4.07c-3-1.19-10.11.34-16.2,5.89C327.15,110.48,325.09,115.91,323.93,121.11Zm14.81.32c1.51-6.46,3.25-11.93,7.74-11.93,2.85,0,4.34,2.62,4,7.09-.24,1.12-.5,2.3-.81,3.62-.45,1.93-.94,3.83-1.41,5.74a14.12,14.12,0,0,1-1.67,3.35,7.74,7.74,0,0,1-5.49,2.66c-.45,0-3.22,0-3.32-4.09A28.47,28.47,0,0,1,338.74,121.43Zm77.38-21.34-.54-.63c-7,1.42-8.25,1.64-14.66,2.51l-.47.47c0,.08-.05.19-.08.3l0-.11c-4.78,11-4.64,8.64-8.52,17.32,0-.4,0-.65-.05-1.06l-1-18.8-.61-.63c-7.31,1.42-7.49,1.64-14.24,2.51l-.53.47a5,5,0,0,0-.11.74l0,.1a96.43,96.43,0,0,1,1.49,10.16c.39,3.34.92,6.7,1.31,10,.67,5.52,1,8.24,1.86,16.67-4.56,7.52-5.64,10.37-10,17l0,.06-3.1,4.89a2.29,2.29,0,0,1-1.12,1,4.56,4.56,0,0,1-2,.29h-1.71l-2.54,8.47,8.73.15c5.13,0,8.35-2.42,10.09-5.64l5.49-9.41h-.09l.58-.67C388,148.3,416.12,100.09,416.12,100.09ZM323.93,211.32h-3.71L333.94,166h4.55l1.44-4.67.14,5.2c-.17,3.21,2.36,6.06,9,5.59h7.67l2.65-8.74H356.5c-1.66,0-2.43-.42-2.34-1.32l-.14-5.29H339.8v0c-4.59.1-18.32.44-21.1,1.18a25,25,0,0,0-6.91,3.42l1.4-4.68h-13.3L297.12,166,283.22,212h-2.7l-2.64,8.67h26.48l-.88,2.9h13l.86-2.9h3.67Zm-10.87-36.15a59.15,59.15,0,0,0-6.09,2.38l3.52-11.6h10.57l-2.55,8.45A34.06,34.06,0,0,0,313.06,175.17Zm.2,16.56s-3.32.42-5.5.91a55.49,55.49,0,0,0-6.19,2.71l3.64-12.06h10.62Zm-5.92,19.69h-10.6l3.07-10.18h10.57Zm25.53-28.13h15.27L346,190.4H330.47l-2.33,7.77h13.55l-10.26,14.44a4.24,4.24,0,0,1-2.08,1.74,6.11,6.11,0,0,1-2.75.79h-3.75l-2.59,8.51h9.83a12,12,0,0,0,10.36-5.37l7-9.63,1.51,9.78a4.57,4.57,0,0,0,2.53,3.31,9,9,0,0,0,3.43,1.47c1.55.07,2.66.12,3.4.12h4.83l2.9-9.53h-1.91c-1.09,0-3-.18-3.29-.53a4.88,4.88,0,0,1-.5-2l-1.53-9.79h-6.27l2.75-3.28h15.45l2.37-7.77h-14.3l2.23-7.11h14.26l2.64-8.77H335.47Zm-129,30.11,3.57-11.86h14.65l2.68-8.82H210.06l2.24-7.3h14.33l2.66-8.55H193.42l-2.6,8.55H199l-2.17,7.3h-8.17l-2.71,9h8.14l-4.75,15.7c-.64,2.07.3,2.87.9,3.83a4,4,0,0,0,2.62,1.92,15.85,15.85,0,0,0,3.76.51h16.52l2.95-9.77-7.33,1C207.32,214.88,203.4,214.71,203.83,213.4Zm1.68-56.78-3.71,6.71a7.63,7.63,0,0,1-2.16,2.79,7,7,0,0,1-3.32.51h-1.93l-2.6,8.58h6.44a14.58,14.58,0,0,0,6.61-1.7c1.22-.65,1.54-.28,2.48-1.19l2.17-1.88h20.1l2.67-8.94H217.55l2.56-4.88Zm29.67,57c-.34-.5-.1-1.37.43-3.17l5.49-18.18h19.54c2.85,0,4.9-.08,6.24-.17a12.94,12.94,0,0,0,4.7-1.59,8.74,8.74,0,0,0,3.42-3.15,27,27,0,0,0,3.37-7.64l6.9-23-20.27.12a64,64,0,0,0-9,1.94,36.54,36.54,0,0,0-6.73,4.3l1.83-6.31H238.57L221,214.88a35.71,35.71,0,0,0-1.14,4.88c0,1.06,1.34,2.11,2.23,2.91,1.05.79,2.6.66,4.09.79s3.79.19,6.86.19h9.63l2.95-10-8.62.82A2.28,2.28,0,0,1,235.18,213.58ZM244.64,180h20.53L263.86,184a13.42,13.42,0,0,0-2.71,0H243.38Zm4.11-13.72h20.7L268,171.16s-9.75-.1-11.31.19a23.07,23.07,0,0,0-10.89,4.86Zm15.57,31.5a2.21,2.21,0,0,1-.81,1.26,4,4,0,0,1-2.1.37h-2.92l.17-5H246.5l-.5,24.35c0,1.75.15,2.77,1.44,3.58,1.28,1,5.24,1.15,10.58,1.15h7.62l2.75-9.11-6.64.36-2.2.13a2.57,2.57,0,0,1-.91-.57c-.28-.28-.75-.11-.68-1.86l.06-6.24,7-.29a9,9,0,0,0,6.74-2.39,7.47,7.47,0,0,0,2.23-4.13l1.16-5.53h-9.56Z"/></svg>