<?xml version="1.0" encoding="UTF-8" standalone="no"?><!DOCTYPE svg PUBLIC "-//W3C//DTD SVG 1.1//EN" "http://www.w3.org/Graphics/SVG/1.1/DTD/svg11.dtd"><svg width="100%" height="100%" viewBox="0 0 96 64" version="1.1" xmlns="http://www.w3.org/2000/svg" xmlns:xlink="http://www.w3.org/1999/xlink" xml:space="preserve" xmlns:serif="http://www.serif.com/" style="fill-rule:evenodd;clip-rule:evenodd;stroke-linecap:round;stroke-linejoin:round;stroke-miterlimit:1.5;"><path d="M95,7.053c0,-3.341 -2.712,-6.053 -6.053,-6.053l-81.894,-0c-3.341,-0 -6.053,2.712 -6.053,6.053l0,49.894c0,3.341 2.712,6.053 6.053,6.053l81.894,0c3.341,0 6.053,-2.712 6.053,-6.053l0,-49.894Z" style="fill:#006fcf;stroke:#7e7e7e;stroke-width:0.5px;"/><g><path d="M54.459,9.71l-10.404,23.609l8.342,0l0,21.172l26.31,0l4.061,-4.51l4.063,4.534l7.933,0l0,-2.672l-6.538,0l-5.395,-5.867l-5.44,5.88l-22.088,0l0,-18.444l22.202,0l5.408,5.938l5.476,-5.963l6.352,-0l0,-2.626l-4.935,-0l-0,-12.769l-4.686,12.699l-4.45,0l-4.823,-12.608l0,12.647l-10.546,0l-1.49,-3.637l-8.559,0l-1.457,3.589l-5.544,0l8.116,-18.39l6.498,-0l8.058,18.438l-0,-18.443l7.875,-0l4.161,11.351l4.127,-11.364l7.714,0.003l0,-2.656l-9.767,-0l-2.048,5.839l-2.2,-5.8l-12.552,-0l-0.077,7.83l-3.474,-7.76l-10.223,-0.02Z" style="fill:#fff;"/><path d="M59.526,16.941l-2.53,5.961l5.011,0l-2.481,-5.961Z" style="fill:#fff;"/><path d="M60.312,37.605l10.641,-0l0,-4.147l8.738,9.184l-8.621,9.204l-0.101,0l0,-4.221l-10.669,-0l-0,-2.905l10.397,0l-0,-4.077l-10.397,0l0.012,-3.038Z" style="fill:#fff;"/><path d="M94.723,47.865l0,3.969l-8.581,-9.23l8.59,-9.225l-0,3.95l-4.946,5.265l4.937,5.271Z" style="fill:#fff;"/></g></svg>