<?xml version="1.0" encoding="UTF-8" standalone="no"?>
<!DOCTYPE svg PUBLIC "-//W3C//DTD SVG 1.1//EN" "http://www.w3.org/Graphics/SVG/1.1/DTD/svg11.dtd">
<svg width="100%" height="100%" viewBox="0 0 96 64" version="1.1" xmlns="http://www.w3.org/2000/svg" xmlns:xlink="http://www.w3.org/1999/xlink" xml:space="preserve" xmlns:serif="http://www.serif.com/" style="fill-rule:evenodd;clip-rule:evenodd;stroke-linejoin:round;stroke-miterlimit:2;">
    <g transform="matrix(0.401727,4.93038e-32,7.88861e-31,0.415782,0.469517,0.206858)">
        <path d="M235.31,16.467C235.31,8.431 228.558,1.908 220.242,1.908L16.389,1.908C8.072,1.908 1.321,8.431 1.321,16.467L1.321,136.465C1.321,144.5 8.072,151.024 16.389,151.024L220.242,151.024C228.558,151.024 235.31,144.5 235.31,136.465L235.31,16.467Z" style="fill:rgb(52,52,52);"/>
    </g>
    <g transform="matrix(0.0131647,-7.61972e-18,4.76063e-17,-0.0131911,15.9954,78.2347)">
        <g transform="matrix(75.9608,-4.38782e-14,2.74141e-13,-75.8089,-1208.01,5930.88)">
            <path d="M54.367,9.71L43.963,33.319L52.305,33.319L52.305,54.491L78.615,54.491L82.676,49.981L86.739,54.515L94.672,54.515L94.672,51.843L88.133,51.843L82.739,45.976L77.299,51.856L55.211,51.856L55.211,33.412L77.412,33.412L82.821,39.35L88.297,33.387L94.649,33.387L94.649,30.761L89.713,30.761L89.713,17.992L85.028,30.691L80.578,30.691L75.755,18.083L75.755,30.73L65.209,30.73L63.719,27.093L55.16,27.093L53.703,30.682L48.159,30.682L56.274,12.292L62.773,12.292L70.831,30.73L70.831,12.287L78.705,12.287L82.866,23.638L86.994,12.274L94.708,12.277L94.708,9.621L84.94,9.621L82.893,15.46L80.692,9.66L68.141,9.66L68.064,17.49L64.59,9.73L54.367,9.71Z" style="fill:rgb(249,249,249);"/>
        </g>
        <g transform="matrix(75.9608,-4.38782e-14,2.74141e-13,-75.8089,-1208.01,5930.88)">
            <path d="M59.434,16.941L56.904,22.902L61.915,22.902L59.434,16.941Z" style="fill:rgb(249,249,249);"/>
        </g>
        <g transform="matrix(75.9608,-4.38782e-14,2.74141e-13,-75.8089,-1208.01,5930.88)">
            <path d="M60.22,37.605L70.861,37.605L70.861,33.458L79.599,42.642L70.978,51.846L70.877,51.846L70.877,47.625L60.208,47.625L60.208,44.72L70.604,44.72L70.604,40.643L60.208,40.643L60.22,37.605Z" style="fill:rgb(249,249,249);"/>
        </g>
        <g transform="matrix(75.9608,-4.38782e-14,2.74141e-13,-75.8089,-1208.01,5930.88)">
            <path d="M94.631,47.865L94.631,51.834L86.05,42.604L94.639,33.379L94.639,37.329L89.694,42.594L94.631,47.865Z" style="fill:rgb(249,249,249);"/>
        </g>
    </g>
</svg>
