<svg width="139" height="11" viewBox="0 0 139 11" fill="none" xmlns="http://www.w3.org/2000/svg">
<path d="M3.39482 2.7C3.80882 2.7 4.17482 2.781 4.49282 2.943C4.81082 3.099 5.05382 3.324 5.22182 3.618C5.39582 3.906 5.48282 4.245 5.48282 4.635C5.48282 5.025 5.39582 5.367 5.22182 5.661C5.04782 5.955 4.80182 6.183 4.48382 6.345C4.17182 6.501 3.80882 6.579 3.39482 6.579H1.75682V9H0.973816V2.7H3.39482ZM1.75682 5.859H3.32282C3.73682 5.859 4.06682 5.748 4.31282 5.526C4.55882 5.304 4.68182 5.007 4.68182 4.635C4.68182 4.263 4.55882 3.969 4.31282 3.753C4.07282 3.531 3.74582 3.42 3.33182 3.42H1.75682V5.859ZM8.08726 9.054C7.64326 9.054 7.24726 8.955 6.89926 8.757C6.55726 8.559 6.29026 8.283 6.09826 7.929C5.90626 7.575 5.81026 7.167 5.81026 6.705C5.81026 6.243 5.90626 5.835 6.09826 5.481C6.29026 5.127 6.55726 4.851 6.89926 4.653C7.24726 4.455 7.64326 4.356 8.08726 4.356C8.53126 4.356 8.92426 4.455 9.26626 4.653C9.61426 4.851 9.88426 5.127 10.0763 5.481C10.2683 5.835 10.3643 6.243 10.3643 6.705C10.3643 7.167 10.2683 7.575 10.0763 7.929C9.88426 8.283 9.61426 8.559 9.26626 8.757C8.92426 8.955 8.53126 9.054 8.08726 9.054ZM8.08726 8.397C8.38726 8.397 8.65126 8.325 8.87926 8.181C9.11326 8.037 9.29326 7.836 9.41926 7.578C9.54526 7.32 9.60826 7.029 9.60826 6.705C9.60826 6.381 9.54526 6.09 9.41926 5.832C9.29326 5.574 9.11326 5.373 8.87926 5.229C8.65126 5.085 8.38726 5.013 8.08726 5.013C7.78726 5.013 7.52026 5.085 7.28626 5.229C7.05826 5.373 6.88126 5.574 6.75526 5.832C6.62926 6.09 6.56626 6.381 6.56626 6.705C6.56626 7.029 6.62926 7.32 6.75526 7.578C6.88126 7.836 7.05826 8.037 7.28626 8.181C7.52026 8.325 7.78726 8.397 8.08726 8.397ZM10.6467 4.41H11.4207L12.5637 8.145L13.7697 4.41H14.4537L15.5967 8.145L16.7937 4.41H17.5407L16.0107 9H15.2007L14.0937 5.589L12.9417 9L12.1317 9.009L10.6467 4.41ZM17.8249 6.705C17.8249 6.237 17.9149 5.826 18.0949 5.472C18.2809 5.118 18.5389 4.845 18.8689 4.653C19.1989 4.455 19.5769 4.356 20.0029 4.356C20.4229 4.356 20.7949 4.443 21.1189 4.617C21.4429 4.791 21.6979 5.043 21.8839 5.373C22.0699 5.703 22.1689 6.09 22.1809 6.534C22.1809 6.6 22.1749 6.705 22.1629 6.849H18.5989V6.912C18.6109 7.362 18.7489 7.722 19.0129 7.992C19.2769 8.262 19.6219 8.397 20.0479 8.397C20.3779 8.397 20.6569 8.316 20.8849 8.154C21.1189 7.986 21.2749 7.755 21.3529 7.461H22.0999C22.0099 7.929 21.7849 8.313 21.4249 8.613C21.0649 8.907 20.6239 9.054 20.1019 9.054C19.6459 9.054 19.2469 8.958 18.9049 8.766C18.5629 8.568 18.2959 8.292 18.1039 7.938C17.9179 7.578 17.8249 7.167 17.8249 6.705ZM21.4159 6.237C21.3799 5.847 21.2329 5.544 20.9749 5.328C20.7229 5.112 20.4019 5.004 20.0119 5.004C19.6639 5.004 19.3579 5.118 19.0939 5.346C18.8299 5.574 18.6799 5.871 18.6439 6.237H21.4159ZM25.354 4.41V5.13H24.985C24.547 5.13 24.232 5.277 24.04 5.571C23.854 5.865 23.761 6.228 23.761 6.66V9H23.023V4.41H23.662L23.761 5.103C23.893 4.893 24.064 4.725 24.274 4.599C24.484 4.473 24.775 4.41 25.147 4.41H25.354ZM25.6032 6.705C25.6032 6.237 25.6932 5.826 25.8732 5.472C26.0592 5.118 26.3172 4.845 26.6472 4.653C26.9772 4.455 27.3552 4.356 27.7812 4.356C28.2012 4.356 28.5732 4.443 28.8972 4.617C29.2212 4.791 29.4762 5.043 29.6622 5.373C29.8482 5.703 29.9472 6.09 29.9592 6.534C29.9592 6.6 29.9532 6.705 29.9412 6.849H26.3772V6.912C26.3892 7.362 26.5272 7.722 26.7912 7.992C27.0552 8.262 27.4002 8.397 27.8262 8.397C28.1562 8.397 28.4352 8.316 28.6632 8.154C28.8972 7.986 29.0532 7.755 29.1312 7.461H29.8782C29.7882 7.929 29.5632 8.313 29.2032 8.613C28.8432 8.907 28.4022 9.054 27.8802 9.054C27.4242 9.054 27.0252 8.958 26.6832 8.766C26.3412 8.568 26.0742 8.292 25.8822 7.938C25.6962 7.578 25.6032 7.167 25.6032 6.705ZM29.1942 6.237C29.1582 5.847 29.0112 5.544 28.7532 5.328C28.5012 5.112 28.1802 5.004 27.7902 5.004C27.4422 5.004 27.1362 5.118 26.8722 5.346C26.6082 5.574 26.4582 5.871 26.4222 6.237H29.1942ZM35.1574 2.7V9H34.5184L34.4194 8.262C34.0354 8.79 33.5104 9.054 32.8444 9.054C32.4184 9.054 32.0374 8.961 31.7014 8.775C31.3714 8.589 31.1104 8.319 30.9184 7.965C30.7324 7.611 30.6394 7.191 30.6394 6.705C30.6394 6.243 30.7324 5.835 30.9184 5.481C31.1104 5.127 31.3744 4.851 31.7104 4.653C32.0464 4.455 32.4244 4.356 32.8444 4.356C33.2164 4.356 33.5344 4.425 33.7984 4.563C34.0624 4.695 34.2694 4.878 34.4194 5.112V2.7H35.1574ZM32.9164 8.397C33.2104 8.397 33.4714 8.328 33.6994 8.19C33.9334 8.046 34.1134 7.848 34.2394 7.596C34.3654 7.338 34.4284 7.047 34.4284 6.723C34.4284 6.393 34.3654 6.099 34.2394 5.841C34.1134 5.577 33.9334 5.373 33.6994 5.229C33.4714 5.085 33.2104 5.013 32.9164 5.013C32.4604 5.013 32.0914 5.172 31.8094 5.49C31.5334 5.802 31.3954 6.207 31.3954 6.705C31.3954 7.203 31.5334 7.611 31.8094 7.929C32.0914 8.241 32.4604 8.397 32.9164 8.397ZM40.8312 4.356C41.2572 4.356 41.6352 4.449 41.9652 4.635C42.3012 4.821 42.5622 5.091 42.7482 5.445C42.9402 5.799 43.0362 6.219 43.0362 6.705C43.0362 7.167 42.9402 7.575 42.7482 7.929C42.5622 8.283 42.3012 8.559 41.9652 8.757C41.6292 8.955 41.2512 9.054 40.8312 9.054C40.4592 9.054 40.1412 8.988 39.8772 8.856C39.6132 8.718 39.4062 8.532 39.2562 8.298L39.1572 9H38.5182V2.7H39.2562V5.148C39.6402 4.62 40.1652 4.356 40.8312 4.356ZM40.7592 8.397C41.2152 8.397 41.5812 8.241 41.8572 7.929C42.1392 7.611 42.2802 7.203 42.2802 6.705C42.2802 6.207 42.1392 5.802 41.8572 5.49C41.5812 5.172 41.2152 5.013 40.7592 5.013C40.4652 5.013 40.2012 5.085 39.9672 5.229C39.7392 5.367 39.5622 5.565 39.4362 5.823C39.3102 6.075 39.2472 6.363 39.2472 6.687C39.2472 7.017 39.3102 7.314 39.4362 7.578C39.5622 7.836 39.7392 8.037 39.9672 8.181C40.2012 8.325 40.4652 8.397 40.7592 8.397ZM44.0277 4.41L45.4407 8.154L46.8087 4.41H47.5917L45.4767 9.774C45.3687 10.05 45.2727 10.257 45.1887 10.395C45.1047 10.533 44.9997 10.635 44.8737 10.701C44.7477 10.767 44.5797 10.8 44.3697 10.8H43.4877V10.125H44.1447C44.2887 10.125 44.3967 10.11 44.4687 10.08C44.5407 10.05 44.5977 9.999 44.6397 9.927C44.6877 9.861 44.7447 9.747 44.8107 9.585L45.0447 9.036L43.2447 4.41H44.0277Z" fill="#A4A4A4"/>
<path d="M55.3554 1.05888C56.1662 0.846989 56.977 1.21884 57.3724 1.98333L58.1501 3.48632L57.4595 4.82209L56.3003 2.58058C56.1031 2.19937 55.7548 2.25754 55.6527 2.28351C55.5506 2.31052 55.2172 2.431 55.2172 2.8631V8.13657C55.2172 8.56867 55.5506 8.68916 55.6527 8.71617C55.7548 8.74317 56.1031 8.8003 56.3003 8.4191L59.6276 1.98333C60.023 1.21884 60.8338 0.846989 61.6446 1.05888C62.4555 1.27078 63 1.99579 63 2.8631V8.13657C63 9.00389 62.4555 9.7289 61.6446 9.94079C61.4925 9.98026 61.3413 10 61.1922 10C60.5445 10 59.9489 9.63853 59.6276 9.01635L58.8438 7.49985L59.5345 6.16409L60.7007 8.41806C60.8979 8.79926 61.2462 8.74214 61.3483 8.71513C61.4505 8.68812 61.7838 8.56763 61.7838 8.13554V2.86206C61.7838 2.42997 61.4505 2.30948 61.3483 2.28247C61.3163 2.27416 61.2603 2.26273 61.1922 2.26273C61.043 2.26273 60.8358 2.31779 60.7007 2.57954L57.3724 9.01428C57.0511 9.63542 56.4555 9.99792 55.8078 9.99792C55.6587 9.99792 55.5075 9.97923 55.3554 9.93872C54.5445 9.72682 54 9.00181 54 8.1345V2.86206C54 1.99475 54.5445 1.26974 55.3554 1.05888Z" fill="#A4A4A4"/>
<path d="M85.489 2.15213C87.259 2.15213 88.6989 3.56714 88.6989 5.30669C88.6989 7.04623 87.259 8.46124 85.489 8.46124C83.7189 8.46124 82.2791 7.04623 82.2791 5.30669C82.2791 3.56714 83.7189 2.15213 85.489 2.15213ZM85.489 0.873352C82.9974 0.873352 80.9778 2.85812 80.9778 5.30669C80.9778 7.75525 82.9974 9.74002 85.489 9.74002C87.9805 9.74002 90.0001 7.75525 90.0001 5.30669C90.0001 2.85812 87.9805 0.873352 85.489 0.873352Z" fill="#A4A4A4"/>
<path d="M115.089 9.73941C114.627 9.73941 114.208 9.68774 113.845 9.58621C113.48 9.48347 113.157 9.33696 112.886 9.15033C112.616 8.96369 112.391 8.75274 112.218 8.52355C112.044 8.29254 111.914 8.04328 111.831 7.78248L111.778 7.6153L113.051 7.1703L113.108 7.34052C113.211 7.64752 113.425 7.92048 113.746 8.1515C114.066 8.38312 114.467 8.50045 114.938 8.50045C115.526 8.50045 115.988 8.38494 116.311 8.15636C116.62 7.93933 116.77 7.6609 116.77 7.30465C116.77 6.97819 116.638 6.71921 116.365 6.51434C116.068 6.29123 115.667 6.11311 115.173 5.98605L114.278 5.75078C113.9 5.6529 113.546 5.50639 113.227 5.31428C112.898 5.11671 112.632 4.86016 112.436 4.55194C112.237 4.23825 112.135 3.85951 112.135 3.42666C112.135 2.63209 112.396 1.99924 112.91 1.54633C113.418 1.10011 114.151 0.873352 115.088 0.873352C115.645 0.873352 116.135 0.967581 116.543 1.15361C116.95 1.33903 117.288 1.57855 117.548 1.8661C117.807 2.15365 117.994 2.47039 118.102 2.80718L118.156 2.97375L116.9 3.41815L116.838 3.25522C116.704 2.89776 116.484 2.6248 116.166 2.42054C115.848 2.21688 115.454 2.11353 114.995 2.11353C114.536 2.11353 114.142 2.22843 113.871 2.45458C113.606 2.67526 113.477 2.9701 113.477 3.35614C113.477 3.67895 113.573 3.91604 113.772 4.0814C113.99 4.26317 114.283 4.39935 114.642 4.48628L115.537 4.71C116.354 4.90454 116.995 5.23525 117.439 5.69242C117.892 6.15992 118.123 6.67483 118.123 7.22258C118.123 7.68461 118.004 8.1138 117.771 8.49741C117.537 8.88162 117.19 9.18923 116.739 9.41052C116.295 9.62938 115.739 9.74002 115.088 9.74002L115.089 9.73941Z" fill="#A4A4A4"/>
<path d="M94.9779 4.64911L92.828 1.02881H91.4001L94.2639 5.85103L94.9779 4.64911Z" fill="#A4A4A4"/>
<path d="M98.3294 1.02881L94.9778 6.77068V9.73992H96.3812V7.15359L99.9556 1.02881H98.3294Z" fill="#A4A4A4"/>
<path d="M105.011 2.28654C105.066 2.28654 105.081 2.32122 105.088 2.33764L108.236 9.74002H109.755L106.37 1.77857C106.132 1.22011 105.611 0.873352 105.011 0.873352C104.411 0.873352 103.89 1.22011 103.652 1.77857L100.267 9.74002H101.786L102.871 7.18861H105.977L105.457 5.96826H103.39L104.934 2.33764C104.941 2.32122 104.956 2.28654 105.011 2.28654Z" fill="#A4A4A4"/>
<path d="M124.689 2.28654C124.744 2.28654 124.76 2.32122 124.766 2.33764L127.967 9.74002H129.511L126.07 1.77857C125.828 1.22011 125.299 0.873352 124.689 0.873352C124.079 0.873352 123.549 1.22011 123.308 1.77857L119.867 9.74002H121.411L122.514 7.18861H125.67L125.143 5.96826H123.041L124.611 2.33764C124.618 2.32122 124.633 2.28654 124.689 2.28654Z" fill="#A4A4A4"/>
<path d="M139 9.73143L136.202 6.73067H136.883C137.921 6.26239 138.645 5.22028 138.645 4.01197C138.645 2.36693 137.304 1.02881 135.656 1.02881H132.467V9.73992H133.83V2.38937H135.656C136.552 2.38937 137.282 3.11727 137.282 4.01258C137.282 4.90789 136.553 5.63579 135.656 5.63579H134.721V6.73128L137.122 9.73203H138.999L139 9.73143Z" fill="#A4A4A4"/>
<path d="M73.0444 4.19945L71.4781 1.52862C71.1671 1.00552 70.5664 0.761613 69.9833 0.922192C69.3954 1.08459 69 1.60769 69 2.22324V9.74002H70.4109V2.49817L72.2221 5.58687L73.0444 4.19945Z" fill="#A4A4A4"/>
<path d="M77.1901 0.92216C76.605 0.761581 76.0017 1.00549 75.6862 1.53224L72.7334 6.51141C73.0147 6.93171 73.9341 7.25165 74.8138 5.8034L75.0292 5.43784L76.7606 2.49815V9.74002H78.1778V2.22322C78.1778 1.60705 77.7807 1.08456 77.1901 0.92216Z" fill="#A4A4A4"/>
</svg>
