<?xml version="1.0" encoding="UTF-8" standalone="no"?><!DOCTYPE svg PUBLIC "-//W3C//DTD SVG 1.1//EN" "http://www.w3.org/Graphics/SVG/1.1/DTD/svg11.dtd"><svg width="100%" height="100%" viewBox="0 0 96 64" version="1.1" xmlns="http://www.w3.org/2000/svg" xmlns:xlink="http://www.w3.org/1999/xlink" xml:space="preserve" xmlns:serif="http://www.serif.com/" style="fill-rule:evenodd;clip-rule:evenodd;stroke-linecap:round;stroke-linejoin:round;stroke-miterlimit:1.5;"><path d="M95,6.894c0,-3.253 -2.641,-5.894 -5.894,-5.894l-82.212,0c-3.253,0 -5.894,2.641 -5.894,5.894l0,50.212c0,3.253 2.641,5.894 5.894,5.894l82.212,0c3.253,0 5.894,-2.641 5.894,-5.894l0,-50.212Z" style="fill:#fff;stroke:#7e7e7e;stroke-width:0.5px;"/><clipPath id="_clip1"><rect x="7.179" y="18.832" width="81.642" height="26.336"/></clipPath><g clip-path="url(#_clip1)"><g><path d="M47.418,19.387l-5.431,25.384l-6.567,0l5.432,-25.384l6.566,0Zm27.627,16.39l3.457,-9.532l1.989,9.532l-5.446,0Zm7.326,8.994l6.074,0l-5.3,-25.384l-5.607,0c-1.259,0 -2.323,0.733 -2.795,1.863l-9.852,23.521l6.895,0l1.37,-3.79l8.424,-0l0.791,3.79Zm-17.137,-8.287c0.028,-6.701 -9.267,-7.069 -9.201,-10.062c0.019,-0.912 0.887,-1.879 2.784,-2.127c0.943,-0.123 3.534,-0.218 6.476,1.136l1.152,-5.383c-1.58,-0.574 -3.614,-1.125 -6.143,-1.125c-6.49,-0 -11.059,3.451 -11.097,8.391c-0.041,3.655 3.261,5.693 5.75,6.908c2.557,1.245 3.417,2.041 3.406,3.154c-0.017,1.704 -2.041,2.455 -3.929,2.485c-3.302,0.052 -5.218,-0.892 -6.745,-1.603l-1.19,5.562c1.534,0.705 4.365,1.317 7.303,1.348c6.898,0 11.411,-3.408 11.434,-8.684Zm-27.2,-17.097l-10.639,25.384l-6.942,0l-5.235,-20.258c-0.318,-1.248 -0.595,-1.705 -1.562,-2.23c-1.576,-0.857 -4.183,-1.66 -6.477,-2.158l0.157,-0.738l11.173,0c1.423,0 2.705,0.948 3.028,2.588l2.765,14.69l6.833,-17.278l6.899,0Z" style="fill:#0d357f;fill-rule:nonzero;"/></g></g></svg>