<?xml version="1.0" encoding="UTF-8" standalone="no"?>
<!DOCTYPE svg PUBLIC "-//W3C//DTD SVG 1.1//EN" "http://www.w3.org/Graphics/SVG/1.1/DTD/svg11.dtd">
<svg width="100%" height="100%" viewBox="0 0 96 64" version="1.1" xmlns="http://www.w3.org/2000/svg" xmlns:xlink="http://www.w3.org/1999/xlink" xml:space="preserve" xmlns:serif="http://www.serif.com/" style="fill-rule:evenodd;clip-rule:evenodd;stroke-linejoin:round;stroke-miterlimit:2;">
    <g transform="matrix(0.401727,0,0,0.415782,0.469517,0.206858)">
        <path d="M235.31,16.084C235.31,8.26 228.736,1.908 220.638,1.908L15.992,1.908C7.895,1.908 1.321,8.26 1.321,16.084L1.321,136.848C1.321,144.672 7.895,151.024 15.992,151.024L220.638,151.024C228.736,151.024 235.31,144.672 235.31,136.848L235.31,16.084Z" style="fill:rgb(52,52,52);"/>
    </g>
    <g transform="matrix(0.0902957,0,0,0.0902957,48,32)">
        <g transform="matrix(1,0,0,1,-452.083,-145.833)">
            <clipPath id="_clip1">
                <rect x="0" y="0" width="904.167" height="291.667"/>
            </clipPath>
            <g clip-path="url(#_clip1)">
                <g transform="matrix(4.16667,0,0,4.16667,0,0)">
                    <path d="M106.952,1.476L92.517,68.945L75.064,68.945L89.5,1.476L106.952,1.476ZM180.383,45.04L189.572,19.704L194.86,45.04L180.383,45.04ZM199.856,68.945L216,68.945L201.913,1.476L187.01,1.476C183.663,1.476 180.837,3.424 179.581,6.426L153.396,68.945L171.722,68.945L175.362,58.87L197.754,58.87L199.856,68.945ZM154.306,46.917C154.38,29.108 129.677,28.128 129.85,20.173C129.901,17.751 132.208,15.179 137.251,14.52C139.756,14.193 146.643,13.942 154.463,17.54L157.525,3.233C153.326,1.708 147.92,0.241 141.199,0.241C123.949,0.241 111.805,9.414 111.703,22.546C111.594,32.259 120.37,37.676 126.985,40.907C133.783,44.214 136.068,46.332 136.039,49.29C135.994,53.819 130.614,55.814 125.596,55.894C116.819,56.032 111.727,53.524 107.667,51.633L104.504,66.416C108.582,68.29 116.108,69.916 123.917,70C142.25,70 154.246,60.941 154.306,46.917ZM82.011,1.476L53.734,68.945L35.282,68.945L21.367,15.099C20.522,11.782 19.787,10.569 17.217,9.172C13.026,6.896 6.097,4.76 0,3.436L0.417,1.476L30.114,1.476C33.898,1.476 37.304,3.995 38.163,8.354L45.513,47.399L63.675,1.476L82.011,1.476Z" style="fill:rgb(249,249,249);fill-rule:nonzero;"/>
                </g>
            </g>
        </g>
    </g>
</svg>
