<?xml version="1.0" encoding="UTF-8" standalone="no"?>
<!DOCTYPE svg PUBLIC "-//W3C//DTD SVG 1.1//EN" "http://www.w3.org/Graphics/SVG/1.1/DTD/svg11.dtd">
<svg width="100%" height="100%" viewBox="0 0 96 64" version="1.1" xmlns="http://www.w3.org/2000/svg" xmlns:xlink="http://www.w3.org/1999/xlink" xml:space="preserve" xmlns:serif="http://www.serif.com/" style="fill-rule:evenodd;clip-rule:evenodd;stroke-linejoin:round;stroke-miterlimit:2;">
    <g transform="matrix(0.401727,0,0,0.415782,0.469517,0.206858)">
        <path d="M235.31,16.084C235.31,8.26 228.736,1.908 220.638,1.908L15.992,1.908C7.895,1.908 1.321,8.26 1.321,16.084L1.321,136.848C1.321,144.672 7.895,151.024 15.992,151.024L220.638,151.024C228.736,151.024 235.31,144.672 235.31,136.848L235.31,16.084Z" style="fill:rgb(52,52,52);"/>
    </g>
    <g transform="matrix(0.107259,0,0,0.107345,5.3,17.8)">
        <rect x="0" y="153.1" width="336.8" height="112.2" style="fill:rgb(249,249,249);"/>
        <rect x="0" y="0" width="336.8" height="112.3" style="fill:rgb(249,249,249);"/>
        <path d="M673.6,242.5L672.1,242.8C666.9,243.8 665,244.2 661.2,244.2C652.4,244.2 642,239.7 642,218.5C642,207.6 643.8,193.1 660.2,193.1L660.3,193.1C663.1,193.3 666.3,193.6 672.3,195.4L673.6,195.8L673.6,242.5ZM676.3,136.8L673.6,137.3L673.6,176.5L671.2,175.8L670.5,175.6C667.8,174.8 661.6,173 655.6,173C622.8,173 615.9,197.8 615.9,218.6C615.9,247.1 631.9,263.5 659.8,263.5C671.6,263.5 680.3,262.3 689.1,259.4C697.2,256.8 700.1,253.1 700.1,245.2L700.1,132.7C692.3,134.1 684.2,135.5 676.3,136.8" style="fill:rgb(249,249,249);fill-rule:nonzero;"/>
        <path d="M771.1,243.2L769.7,243.6L764.7,244.9C760,246.1 755.8,246.8 752.6,246.8C744.9,246.8 740.3,243 740.3,236.5C740.3,232.3 742.2,225.2 754.8,225.2L771.1,225.2L771.1,243.2ZM759.6,172.5C749.5,172.5 739.1,174.3 726.2,178.3L717.8,180.8L720.6,199.8L728.8,197.1C737.4,194.3 748.1,192.5 756.1,192.5C759.7,192.5 770.7,192.5 770.7,204.4L770.7,209.6L755.4,209.6C727.5,209.6 714.6,218.5 714.6,237.6C714.6,253.9 726.5,263.7 746.5,263.7C752.7,263.7 761.3,262.5 768.7,260.7L769.1,260.6L769.5,260.7L772,261.1C779.8,262.5 787.9,263.9 795.8,265.4L795.8,203C795.8,182.8 783.6,172.5 759.6,172.5" style="fill:rgb(249,249,249);fill-rule:nonzero;"/>
        <path d="M576.8,243.2L575.4,243.6L570.4,244.9C565.7,246.1 561.6,246.8 558.3,246.8C550.6,246.8 546,243 546,236.5C546,232.3 547.9,225.2 560.4,225.2L576.7,225.2L576.8,243.2ZM565.4,172.5C555.2,172.5 544.9,174.3 532,178.3L523.6,180.8L526.4,199.8L534.6,197.1C543.2,194.3 553.9,192.5 561.9,192.5C565.5,192.5 576.5,192.5 576.5,204.4L576.5,209.6L561.2,209.6C533.3,209.6 520.3,218.5 520.3,237.6C520.3,253.9 532.2,263.7 552.3,263.7C558.5,263.7 567.1,262.5 574.5,260.7L574.9,260.6L575.3,260.7L577.7,261.1C585.6,262.5 593.6,263.9 601.5,265.5L601.5,203.1C601.6,182.7 589.4,172.5 565.4,172.5" style="fill:rgb(249,249,249);fill-rule:nonzero;"/>
        <path d="M471.5,172.7C458.8,172.7 448.3,176.9 444.4,178.7L443.4,179.2L442.5,178.5C437.1,174.6 429.2,172.6 418.2,172.6C408.5,172.6 399.4,174 389.5,176.9C381,179.5 377.7,183.6 377.7,191.3L377.7,262.6L404.3,262.6L404.3,196.7L405.6,196.3C411,194.5 414.2,194.2 417.3,194.2C425,194.2 428.9,198.3 428.9,206.3L428.9,262.7L455.1,262.7L455.1,205.2C455.1,201.8 454.4,199.8 454.3,199.4L453.4,197.7L455.2,196.9C459.2,195.1 463.6,194.2 468.2,194.2C473.5,194.2 479.8,196.3 479.8,206.3L479.8,262.7L505.9,262.7L505.9,203.7C505.9,182.8 494.7,172.7 471.5,172.7" style="fill:rgb(249,249,249);fill-rule:nonzero;"/>
        <path d="M751.5,73.2C747.6,73.2 741.1,72.8 736,71.8L734.5,71.5L734.5,33C734.5,29.8 733.9,27.8 733.8,27.5L733,25.9L734.7,25.2C735.1,25 735.5,24.9 736,24.7L736.3,24.5C736.9,24.3 737.5,24.1 738.1,23.9C738.4,23.8 738.6,23.7 738.8,23.7C744.7,22.1 750.1,22.3 752.5,22.1L752.6,22.1C768.9,22.1 770.8,36.6 770.8,47.5C770.7,68.7 760.2,73.2 751.5,73.2M751.4,0L750.7,0C735.4,0 719.7,4.2 714.1,12.4C711.1,16.4 709.4,21.4 709.3,27.3L709.3,67C709.3,70.4 708.6,71.7 708.5,72L707.6,73.7L659.3,73.7L659.3,46.1L659.2,46.1C658.6,17 641.4,1 616.5,1L592.2,1C591.2,8.1 590.4,13.1 589.4,20.2L613.6,20.2C626.3,20.2 633,31 633,47.6L633,75.4L631.3,74.5C631,74.4 628.9,73.7 625.6,73.7L583.8,73.7C583,79 582,85.9 580.9,92.8L709.4,92.8C713.8,91.9 718.9,91.1 723.3,90.4C729.8,93.6 741.9,95.3 750.2,95.3C778.1,95.3 796.2,76.6 796.2,47.8C796.1,19.3 778.6,0.6 751.4,0" style="fill:rgb(249,249,249);fill-rule:nonzero;"/>
        <path d="M489.3,104.5L527.3,104.5C555.2,104.5 568.2,95.3 568.2,72.6C568.2,56.3 556.3,43.3 536.3,43.3L510.6,43.3C502.9,43.3 498.3,38.9 498.3,31.5C498.3,26.5 500.2,20.3 512.8,20.3L569,20.3C570.2,13 570.8,8.4 571.9,1.1L513.5,1.1C486.3,1.1 472.6,12.5 472.6,31.5C472.6,50.3 484.5,60.1 504.5,60.1L530.2,60.1C537.9,60.1 542.5,66.2 542.5,72.6C542.5,76.8 540.6,85.5 528.1,85.5L523.8,85.5L441.5,85.3L426.5,85.3C413.8,85.3 404.9,78.1 404.9,61.4L404.9,49.9C404.9,32.5 411.8,21.7 426.5,21.7L450.9,21.7C452,14.3 452.7,9.6 453.7,2.6L420.4,2.6C395.5,2.6 378.3,19.3 377.7,48.4L377.7,61.4C378.3,90.5 395.5,104.4 420.4,104.4L444.7,104.4L489.3,104.5Z" style="fill:rgb(249,249,249);fill-rule:nonzero;"/>
    </g>
</svg>
