<?xml version="1.0" encoding="UTF-8" standalone="no"?><!DOCTYPE svg PUBLIC "-//W3C//DTD SVG 1.1//EN" "http://www.w3.org/Graphics/SVG/1.1/DTD/svg11.dtd"><svg width="100%" height="100%" viewBox="0 0 96 64" version="1.1" xmlns="http://www.w3.org/2000/svg" xmlns:xlink="http://www.w3.org/1999/xlink" xml:space="preserve" xmlns:serif="http://www.serif.com/" style="fill-rule:evenodd;clip-rule:evenodd;stroke-linecap:round;stroke-linejoin:round;stroke-miterlimit:1.5;"><path d="M95,6.894c0,-3.253 -2.641,-5.894 -5.894,-5.894l-82.212,0c-3.253,0 -5.894,2.641 -5.894,5.894l0,50.212c0,3.253 2.641,5.894 5.894,5.894l82.212,0c3.253,0 5.894,-2.641 5.894,-5.894l0,-50.212Z" style="fill:#fff;stroke:#7e7e7e;stroke-width:0.5px;"/><g><rect x="5.311" y="34.182" width="36.116" height="12.031" style="fill:#84b740;"/><rect x="5.311" y="17.765" width="36.116" height="12.042" style="fill:#259bd6;"/><path d="M77.542,43.769l-0.161,0.032c-0.557,0.107 -0.761,0.15 -1.168,0.15c-0.944,-0 -2.059,-0.483 -2.059,-2.756c-0,-1.169 0.193,-2.724 1.951,-2.724l0.011,0c0.3,0.022 0.644,0.054 1.287,0.247l0.139,0.043l0,5.008Zm0.29,-11.335l-0.29,0.054l0,4.203l-0.257,-0.075l-0.075,-0.021c-0.29,-0.086 -0.954,-0.279 -1.598,-0.279c-3.517,0 -4.257,2.659 -4.257,4.89c0,3.056 1.716,4.815 4.708,4.815c1.265,-0 2.198,-0.129 3.141,-0.44c0.869,-0.279 1.18,-0.676 1.18,-1.523l-0,-12.063c-0.836,0.15 -1.705,0.3 -2.552,0.439" style="fill:#27292d;fill-rule:nonzero;"/><path d="M87.997,43.844l-0.15,0.043l-0.536,0.139c-0.504,0.129 -0.954,0.204 -1.297,0.204c-0.826,-0 -1.319,-0.408 -1.319,-1.105c-0,-0.45 0.203,-1.211 1.555,-1.211l1.747,-0l0,1.93Zm-1.233,-7.582c-1.083,0 -2.198,0.193 -3.581,0.622l-0.901,0.268l0.3,2.038l0.88,-0.29c0.922,-0.3 2.069,-0.493 2.927,-0.493c0.386,0 1.566,0 1.566,1.276l-0,0.558l-1.641,-0c-2.992,-0 -4.375,0.954 -4.375,3.002c-0,1.748 1.276,2.799 3.421,2.799c0.664,-0 1.587,-0.129 2.38,-0.322l0.043,-0.01l0.043,0.01l0.268,0.043c0.836,0.15 1.705,0.3 2.552,0.461l0,-6.691c0,-2.166 -1.308,-3.271 -3.882,-3.271" style="fill:#27292d;fill-rule:nonzero;"/><path d="M67.162,43.844l-0.15,0.043l-0.536,0.139c-0.504,0.129 -0.944,0.204 -1.297,0.204c-0.826,-0 -1.319,-0.408 -1.319,-1.105c-0,-0.45 0.203,-1.211 1.544,-1.211l1.748,-0l0.01,1.93Zm-1.222,-7.582c-1.094,0 -2.198,0.193 -3.582,0.622l-0.9,0.268l0.3,2.038l0.879,-0.29c0.922,-0.3 2.07,-0.493 2.928,-0.493c0.386,0 1.565,0 1.565,1.276l0,0.558l-1.641,-0c-2.991,-0 -4.385,0.954 -4.385,3.002c-0,1.748 1.276,2.799 3.431,2.799c0.665,-0 1.587,-0.129 2.381,-0.322l0.043,-0.01l0.042,0.01l0.258,0.043c0.847,0.15 1.705,0.3 2.552,0.472l-0,-6.691c0.011,-2.188 -1.298,-3.282 -3.871,-3.282" style="fill:#27292d;fill-rule:nonzero;"/><path d="M55.871,36.284c-1.362,-0 -2.488,0.45 -2.906,0.643l-0.107,0.054l-0.097,-0.075c-0.579,-0.418 -1.426,-0.633 -2.606,-0.633c-1.04,0 -2.016,0.15 -3.077,0.461c-0.912,0.279 -1.266,0.719 -1.266,1.544l0,7.646l2.853,0l-0,-7.067l0.139,-0.042c0.579,-0.193 0.922,-0.226 1.255,-0.226c0.826,0 1.244,0.44 1.244,1.298l-0,6.048l2.809,-0l0,-6.166c0,-0.365 -0.075,-0.579 -0.086,-0.622l-0.096,-0.182l0.193,-0.086c0.429,-0.193 0.901,-0.29 1.394,-0.29c0.568,0 1.244,0.226 1.244,1.298l-0,6.048l2.799,-0l-0,-6.327c-0,-2.241 -1.201,-3.324 -3.689,-3.324" style="fill:#27292d;fill-rule:nonzero;"/><path d="M85.896,25.614c-0.419,0 -1.116,-0.043 -1.662,-0.15l-0.161,-0.032l-0,-4.128c-0,-0.344 -0.065,-0.558 -0.075,-0.59l-0.086,-0.172l0.182,-0.075c0.043,-0.021 0.086,-0.032 0.14,-0.053l0.032,-0.022c0.064,-0.021 0.128,-0.043 0.193,-0.064c0.032,-0.011 0.053,-0.022 0.075,-0.022c0.633,-0.171 1.212,-0.15 1.469,-0.171l0.011,-0c1.748,-0 1.951,1.555 1.951,2.723c-0.01,2.274 -1.136,2.756 -2.069,2.756m-0.011,-7.849l-0.075,-0c-1.641,-0 -3.324,0.45 -3.925,1.33c-0.321,0.429 -0.504,0.965 -0.514,1.597l-0,4.258c-0,0.364 -0.076,0.504 -0.086,0.536l-0.097,0.182l-5.179,-0l-0,-2.96l-0.011,0c-0.064,-3.12 -1.909,-4.836 -4.579,-4.836l-2.605,0c-0.108,0.762 -0.193,1.298 -0.301,2.059l2.595,0c1.362,0 2.081,1.158 2.081,2.938l-0,2.981l-0.183,-0.096c-0.032,-0.011 -0.257,-0.086 -0.611,-0.086l-4.482,-0c-0.086,0.568 -0.193,1.308 -0.311,2.048l13.779,0c0.472,-0.096 1.019,-0.182 1.491,-0.257c0.697,0.343 1.994,0.525 2.884,0.525c2.992,0 4.933,-2.005 4.933,-5.093c-0.011,-3.056 -1.887,-5.062 -4.804,-5.126" style="fill:#27292d;fill-rule:nonzero;"/><path d="M57.78,28.971l4.074,-0c2.992,-0 4.386,-0.987 4.386,-3.421c0,-1.748 -1.276,-3.142 -3.421,-3.142l-2.755,0c-0.826,0 -1.319,-0.472 -1.319,-1.265c-0,-0.536 0.203,-1.201 1.554,-1.201l6.027,-0c0.129,-0.783 0.193,-1.276 0.311,-2.059l-6.262,-0c-2.917,-0 -4.386,1.222 -4.386,3.26c-0,2.016 1.276,3.067 3.42,3.067l2.756,-0c0.826,-0 1.319,0.654 1.319,1.34c0,0.45 -0.203,1.383 -1.544,1.383l-0.461,0l-8.825,-0.021l-1.609,-0c-1.361,-0 -2.316,-0.772 -2.316,-2.563l0,-1.233c0,-1.866 0.74,-3.024 2.316,-3.024l2.617,-0c0.118,-0.794 0.193,-1.298 0.3,-2.048l-3.571,-0c-2.67,-0 -4.514,1.791 -4.579,4.911l0,1.394c0.065,3.12 1.909,4.611 4.579,4.611l2.606,-0l4.783,0.011Z" style="fill:#27292d;fill-rule:nonzero;"/></g></svg>